<?xml version='1.0' encoding='utf-8'?>
<svg xmlns="http://www.w3.org/2000/svg" fill-rule="evenodd" stroke-linecap="round" stroke-linejoin="round" stroke-miterlimit="1.5" clip-rule="evenodd" viewBox="0 0 50 25">
  <g id="pos20" display="none" fill="none" stroke="var(--band-ink)" stroke-width="1">
    <path d="M1863.01 183.498v5.258c0 1.451-1.19 2.629-2.66 2.629h-5.31c-1.47 0-2.66-1.178-2.66-2.629v-5.258c0-1.451 1.19-2.629 2.66-2.629h5.31c1.47 0 2.66 1.178 2.66 2.629z" transform="matrix(.94107 0 0 .9509 -1742.671 -157.98)" />
    <path d="M1863.01 183.498v5.258c0 1.451-1.19 2.629-2.66 2.629h-5.31c-1.47 0-2.66-1.178-2.66-2.629v-5.258c0-1.451 1.19-2.629 2.66-2.629h5.31c1.47 0 2.66 1.178 2.66 2.629z" transform="matrix(.94107 0 0 .9509 -1716.671 -170.98)" />
    <path d="M1863.01 183.498v5.258c0 1.451-1.19 2.629-2.66 2.629h-5.31c-1.47 0-2.66-1.178-2.66-2.629v-5.258c0-1.451 1.19-2.629 2.66-2.629h5.31c1.47 0 2.66 1.178 2.66 2.629z" transform="matrix(.94107 0 0 .9509 -1716.671 -157.98)" />
    <path d="M1863.01 183.498v5.258c0 1.451-1.19 2.629-2.66 2.629h-5.31c-1.47 0-2.66-1.178-2.66-2.629v-5.258c0-1.451 1.19-2.629 2.66-2.629h5.31c1.47 0 2.66 1.178 2.66 2.629z" transform="matrix(.94107 0 0 .9509 -1703.801 -157.98)" />
    <path d="M1863.01 183.498v5.258c0 1.451-1.19 2.629-2.66 2.629h-5.31c-1.47 0-2.66-1.178-2.66-2.629v-5.258c0-1.451 1.19-2.629 2.66-2.629h5.31c1.47 0 2.66 1.178 2.66 2.629z" transform="matrix(.94107 0 0 .9509 -1742.671 -170.98)" />
    <path d="M1863.01 183.498v5.258c0 1.451-1.19 2.629-2.66 2.629h-5.31c-1.47 0-2.66-1.178-2.66-2.629v-5.258c0-1.451 1.19-2.629 2.66-2.629h5.31c1.47 0 2.66 1.178 2.66 2.629z" transform="matrix(.94107 0 0 .9509 -1729.671 -170.98)" />
    <path d="M1863.01 183.498v5.258c0 1.451-1.19 2.629-2.66 2.629h-5.31c-1.47 0-2.66-1.178-2.66-2.629v-5.258c0-1.451 1.19-2.629 2.66-2.629h5.31c1.47 0 2.66 1.178 2.66 2.629z" transform="matrix(.94107 0 0 .9509 -1703.801 -170.98)" />
    <path d="M1863.01 183.498v5.258c0 1.451-1.19 2.629-2.66 2.629h-5.31c-1.47 0-2.66-1.178-2.66-2.629v-5.258c0-1.451 1.19-2.629 2.66-2.629h5.31c1.47 0 2.66 1.178 2.66 2.629z" transform="matrix(.94107 0 0 .9509 -1729.671 -157.98)" />
    <path d="M1863.01 183.498v5.258c0 1.451-1.19 2.629-2.66 2.629h-5.31c-1.47 0-2.66-1.178-2.66-2.629v-5.258c0-1.451 1.19-2.629 2.66-2.629h5.31c1.47 0 2.66 1.178 2.66 2.629z" transform="matrix(.94107 0 0 .9509 -1710.171 -164.48)" />
    <path d="M1863.01 183.498v5.258c0 1.451-1.19 2.629-2.66 2.629h-5.31c-1.47 0-2.66-1.178-2.66-2.629v-5.258c0-1.451 1.19-2.629 2.66-2.629h5.31c1.47 0 2.66 1.178 2.66 2.629z" transform="matrix(.94107 0 0 .9509 -1736.171 -164.48)" />
  </g>
  <g id="pos19" display="none" fill="none" stroke="var(--band-ink)" stroke-width="1">
    <path d="M1863.01 183.498v5.258c0 1.451-1.19 2.629-2.66 2.629h-5.31c-1.47 0-2.66-1.178-2.66-2.629v-5.258c0-1.451 1.19-2.629 2.66-2.629h5.31c1.47 0 2.66 1.178 2.66 2.629z" transform="matrix(.94107 0 0 .9509 -1742.671 -157.98)" />
    <path d="M1863.01 183.498v5.258c0 1.451-1.19 2.629-2.66 2.629h-5.31c-1.47 0-2.66-1.178-2.66-2.629v-5.258c0-1.451 1.19-2.629 2.66-2.629h5.31c1.47 0 2.66 1.178 2.66 2.629z" transform="matrix(.94107 0 0 .9509 -1716.671 -170.98)" />
    <path d="M1863.01 183.498v5.258c0 1.451-1.19 2.629-2.66 2.629h-5.31c-1.47 0-2.66-1.178-2.66-2.629v-5.258c0-1.451 1.19-2.629 2.66-2.629h5.31c1.47 0 2.66 1.178 2.66 2.629z" transform="matrix(.94107 0 0 .9509 -1716.671 -157.98)" />
    <path d="M1863.01 183.498v5.258c0 1.451-1.19 2.629-2.66 2.629h-5.31c-1.47 0-2.66-1.178-2.66-2.629v-5.258c0-1.451 1.19-2.629 2.66-2.629h5.31c1.47 0 2.66 1.178 2.66 2.629z" transform="matrix(.94107 0 0 .9509 -1703.801 -157.98)" />
    <path d="M1863.01 183.498v5.258c0 1.451-1.19 2.629-2.66 2.629h-5.31c-1.47 0-2.66-1.178-2.66-2.629v-5.258c0-1.451 1.19-2.629 2.66-2.629h5.31c1.47 0 2.66 1.178 2.66 2.629z" transform="matrix(.94107 0 0 .9509 -1742.671 -170.98)" />
    <path d="M1863.01 183.498v5.258c0 1.451-1.19 2.629-2.66 2.629h-5.31c-1.47 0-2.66-1.178-2.66-2.629v-5.258c0-1.451 1.19-2.629 2.66-2.629h5.31c1.47 0 2.66 1.178 2.66 2.629z" transform="matrix(.94107 0 0 .9509 -1729.671 -170.98)" />
    <path d="M1863.01 183.498v5.258c0 1.451-1.19 2.629-2.66 2.629h-5.31c-1.47 0-2.66-1.178-2.66-2.629v-5.258c0-1.451 1.19-2.629 2.66-2.629h5.31c1.47 0 2.66 1.178 2.66 2.629z" transform="matrix(.94107 0 0 .9509 -1703.801 -170.98)" />
    <path d="M1863.01 183.498v5.258c0 1.451-1.19 2.629-2.66 2.629h-5.31c-1.47 0-2.66-1.178-2.66-2.629v-5.258c0-1.451 1.19-2.629 2.66-2.629h5.31c1.47 0 2.66 1.178 2.66 2.629z" transform="matrix(.94107 0 0 .9509 -1729.671 -157.98)" />
    <path d="M1863.01 183.498v5.258c0 1.451-1.19 2.629-2.66 2.629h-5.31c-1.47 0-2.66-1.178-2.66-2.629v-5.258c0-1.451 1.19-2.629 2.66-2.629h5.31c1.47 0 2.66 1.178 2.66 2.629z" transform="matrix(.94107 0 0 .9509 -1723.171 -164.48)" />
  </g>
  <g id="pos18" display="none" fill="none" stroke="var(--band-ink)" stroke-width="1">
    <path d="M1863.01 183.498v5.258c0 1.451-1.19 2.629-2.66 2.629h-5.31c-1.47 0-2.66-1.178-2.66-2.629v-5.258c0-1.451 1.19-2.629 2.66-2.629h5.31c1.47 0 2.66 1.178 2.66 2.629z" transform="matrix(.94107 0 0 .9509 -1742.671 -157.98)" />
    <path d="M1863.01 183.498v5.258c0 1.451-1.19 2.629-2.66 2.629h-5.31c-1.47 0-2.66-1.178-2.66-2.629v-5.258c0-1.451 1.19-2.629 2.66-2.629h5.31c1.47 0 2.66 1.178 2.66 2.629z" transform="matrix(.94107 0 0 .9509 -1716.671 -157.98)" />
    <path d="M1863.01 183.498v5.258c0 1.451-1.19 2.629-2.66 2.629h-5.31c-1.47 0-2.66-1.178-2.66-2.629v-5.258c0-1.451 1.19-2.629 2.66-2.629h5.31c1.47 0 2.66 1.178 2.66 2.629z" transform="matrix(.94107 0 0 .9509 -1703.801 -157.98)" />
    <path d="M1863.01 183.498v5.258c0 1.451-1.19 2.629-2.66 2.629h-5.31c-1.47 0-2.66-1.178-2.66-2.629v-5.258c0-1.451 1.19-2.629 2.66-2.629h5.31c1.47 0 2.66 1.178 2.66 2.629z" transform="matrix(.94107 0 0 .9509 -1742.671 -170.98)" />
    <path d="M1863.01 183.498v5.258c0 1.451-1.19 2.629-2.66 2.629h-5.31c-1.47 0-2.66-1.178-2.66-2.629v-5.258c0-1.451 1.19-2.629 2.66-2.629h5.31c1.47 0 2.66 1.178 2.66 2.629z" transform="matrix(.94107 0 0 .9509 -1729.671 -170.98)" />
    <path d="M1863.01 183.498v5.258c0 1.451-1.19 2.629-2.66 2.629h-5.31c-1.47 0-2.66-1.178-2.66-2.629v-5.258c0-1.451 1.19-2.629 2.66-2.629h5.31c1.47 0 2.66 1.178 2.66 2.629z" transform="matrix(.94107 0 0 .9509 -1703.801 -170.98)" />
    <path d="M1863.01 183.498v5.258c0 1.451-1.19 2.629-2.66 2.629h-5.31c-1.47 0-2.66-1.178-2.66-2.629v-5.258c0-1.451 1.19-2.629 2.66-2.629h5.31c1.47 0 2.66 1.178 2.66 2.629z" transform="matrix(.94107 0 0 .9509 -1729.671 -157.98)" />
  </g>
  <g id="pos17" display="none" fill="none" stroke="var(--band-ink)" stroke-width="1">
    <path d="M1863.01 183.498v5.258c0 1.451-1.19 2.629-2.66 2.629h-5.31c-1.47 0-2.66-1.178-2.66-2.629v-5.258c0-1.451 1.19-2.629 2.66-2.629h5.31c1.47 0 2.66 1.178 2.66 2.629z" transform="matrix(.94107 0 0 .9509 -1742.671 -157.98)" />
    <path d="M1863.01 183.498v5.258c0 1.451-1.19 2.629-2.66 2.629h-5.31c-1.47 0-2.66-1.178-2.66-2.629v-5.258c0-1.451 1.19-2.629 2.66-2.629h5.31c1.47 0 2.66 1.178 2.66 2.629z" transform="matrix(.94107 0 0 .9509 -1729.671 -157.98)" />
    <path d="M1863.01 183.498v5.258c0 1.451-1.19 2.629-2.66 2.629h-5.31c-1.47 0-2.66-1.178-2.66-2.629v-5.258c0-1.451 1.19-2.629 2.66-2.629h5.31c1.47 0 2.66 1.178 2.66 2.629z" transform="matrix(.94107 0 0 .9509 -1716.671 -157.98)" />
    <path d="M1863.01 183.498v5.258c0 1.451-1.19 2.629-2.66 2.629h-5.31c-1.47 0-2.66-1.178-2.66-2.629v-5.258c0-1.451 1.19-2.629 2.66-2.629h5.31c1.47 0 2.66 1.178 2.66 2.629z" transform="matrix(.94107 0 0 .9509 -1703.801 -157.98)" />
    <path d="M1863.01 183.498v5.258c0 1.451-1.19 2.629-2.66 2.629h-5.31c-1.47 0-2.66-1.178-2.66-2.629v-5.258c0-1.451 1.19-2.629 2.66-2.629h5.31c1.47 0 2.66 1.178 2.66 2.629z" transform="matrix(.94107 0 0 .9509 -1742.671 -170.98)" />
    <path d="M1863.01 183.498v5.258c0 1.451-1.19 2.629-2.66 2.629h-5.31c-1.47 0-2.66-1.178-2.66-2.629v-5.258c0-1.451 1.19-2.629 2.66-2.629h5.31c1.47 0 2.66 1.178 2.66 2.629z" transform="matrix(.94107 0 0 .9509 -1703.801 -170.98)" />
  </g>
  <g id="pos16" display="none" fill="none" stroke="var(--band-ink)" stroke-width="1">
    <path d="M1863.01 183.498v5.258c0 1.451-1.19 2.629-2.66 2.629h-5.31c-1.47 0-2.66-1.178-2.66-2.629v-5.258c0-1.451 1.19-2.629 2.66-2.629h5.31c1.47 0 2.66 1.178 2.66 2.629z" transform="matrix(.94107 0 0 .9509 -1742.671 -157.98)" />
    <path d="M1863.01 183.498v5.258c0 1.451-1.19 2.629-2.66 2.629h-5.31c-1.47 0-2.66-1.178-2.66-2.629v-5.258c0-1.451 1.19-2.629 2.66-2.629h5.31c1.47 0 2.66 1.178 2.66 2.629z" transform="matrix(.94107 0 0 .9509 -1703.801 -157.98)" />
    <path d="M1863.01 183.498v5.258c0 1.451-1.19 2.629-2.66 2.629h-5.31c-1.47 0-2.66-1.178-2.66-2.629v-5.258c0-1.451 1.19-2.629 2.66-2.629h5.31c1.47 0 2.66 1.178 2.66 2.629z" transform="matrix(.94107 0 0 .9509 -1742.671 -170.98)" />
    <path d="M1863.01 183.498v5.258c0 1.451-1.19 2.629-2.66 2.629h-5.31c-1.47 0-2.66-1.178-2.66-2.629v-5.258c0-1.451 1.19-2.629 2.66-2.629h5.31c1.47 0 2.66 1.178 2.66 2.629z" transform="matrix(.94107 0 0 .9509 -1703.801 -170.98)" />
    <path d="M1863.01 183.498v5.258c0 1.451-1.19 2.629-2.66 2.629h-5.31c-1.47 0-2.66-1.178-2.66-2.629v-5.258c0-1.451 1.19-2.629 2.66-2.629h5.31c1.47 0 2.66 1.178 2.66 2.629z" transform="matrix(.94107 0 0 .9509 -1723.171 -164.48)" />
  </g>
  <g id="pos15" display="none" fill="none" stroke="#dcdbc2" stroke-width="1">
    <path d="M1863.01 183.498v5.258c0 1.451-1.19 2.629-2.66 2.629h-5.31c-1.47 0-2.66-1.178-2.66-2.629v-5.258c0-1.451 1.19-2.629 2.66-2.629h5.31c1.47 0 2.66 1.178 2.66 2.629z" transform="matrix(.94107 0 0 .9509 -1742.671 -157.98)" />
    <path d="M1863.01 183.498v5.258c0 1.451-1.19 2.629-2.66 2.629h-5.31c-1.47 0-2.66-1.178-2.66-2.629v-5.258c0-1.451 1.19-2.629 2.66-2.629h5.31c1.47 0 2.66 1.178 2.66 2.629z" transform="matrix(.94107 0 0 .9509 -1703.801 -157.98)" />
    <path d="M1863.01 183.498v5.258c0 1.451-1.19 2.629-2.66 2.629h-5.31c-1.47 0-2.66-1.178-2.66-2.629v-5.258c0-1.451 1.19-2.629 2.66-2.629h5.31c1.47 0 2.66 1.178 2.66 2.629z" transform="matrix(.94107 0 0 .9509 -1742.671 -170.98)" />
    <path d="M1863.01 183.498v5.258c0 1.451-1.19 2.629-2.66 2.629h-5.31c-1.47 0-2.66-1.178-2.66-2.629v-5.258c0-1.451 1.19-2.629 2.66-2.629h5.31c1.47 0 2.66 1.178 2.66 2.629z" transform="matrix(.94107 0 0 .9509 -1703.801 -170.98)" />
    <path d="M1863.01 183.498v5.258c0 1.451-1.19 2.629-2.66 2.629h-5.31c-1.47 0-2.66-1.178-2.66-2.629v-5.258c0-1.451 1.19-2.629 2.66-2.629h5.31c1.47 0 2.66 1.178 2.66 2.629z" transform="matrix(.94107 0 0 .9509 -1723.171 -164.48)" />
  </g>
  <g id="pos14" display="none" fill="none" stroke="var(--band-ink)" stroke-width="1">
    <path d="M1863.01 183.498v5.258c0 1.451-1.19 2.629-2.66 2.629h-5.31c-1.47 0-2.66-1.178-2.66-2.629v-5.258c0-1.451 1.19-2.629 2.66-2.629h5.31c1.47 0 2.66 1.178 2.66 2.629z" transform="matrix(.94107 0 0 .9509 -1729.671 -157.98)" />
    <path d="M1863.01 183.498v5.258c0 1.451-1.19 2.629-2.66 2.629h-5.31c-1.47 0-2.66-1.178-2.66-2.629v-5.258c0-1.451 1.19-2.629 2.66-2.629h5.31c1.47 0 2.66 1.178 2.66 2.629z" transform="matrix(.94107 0 0 .9509 -1716.671 -157.98)" />
    <path d="M1863.01 183.498v5.258c0 1.451-1.19 2.629-2.66 2.629h-5.31c-1.47 0-2.66-1.178-2.66-2.629v-5.258c0-1.451 1.19-2.629 2.66-2.629h5.31c1.47 0 2.66 1.178 2.66 2.629z" transform="matrix(.94107 0 0 .9509 -1729.671 -170.98)" />
    <path d="M1863.01 183.498v5.258c0 1.451-1.19 2.629-2.66 2.629h-5.31c-1.47 0-2.66-1.178-2.66-2.629v-5.258c0-1.451 1.19-2.629 2.66-2.629h5.31c1.47 0 2.66 1.178 2.66 2.629z" transform="matrix(.94107 0 0 .9509 -1716.671 -170.98)" />
  </g>
  <g id="pos13" display="none" fill="none" stroke="var(--band-ink)" stroke-width="1">
    <path d="M1863.01 183.498v5.258c0 1.451-1.19 2.629-2.66 2.629h-5.31c-1.47 0-2.66-1.178-2.66-2.629v-5.258c0-1.451 1.19-2.629 2.66-2.629h5.31c1.47 0 2.66 1.178 2.66 2.629z" transform="matrix(.94107 0 0 .9509 -1723.171 -164.48)" />
    <path d="M1863.01 183.498v5.258c0 1.451-1.19 2.629-2.66 2.629h-5.31c-1.47 0-2.66-1.178-2.66-2.629v-5.258c0-1.451 1.19-2.629 2.66-2.629h5.31c1.47 0 2.66 1.178 2.66 2.629z" transform="matrix(.94107 0 0 .9509 -1710.171 -164.48)" />
    <path d="M1863.01 183.498v5.258c0 1.451-1.19 2.629-2.66 2.629h-5.31c-1.47 0-2.66-1.178-2.66-2.629v-5.258c0-1.451 1.19-2.629 2.66-2.629h5.31c1.47 0 2.66 1.178 2.66 2.629z" transform="matrix(.94107 0 0 .9509 -1736.171 -164.48)" />
  </g>
  <g id="pos12" display="none" fill="none" stroke="var(--band-ink)" stroke-width="1">
    <path d="M1863.01 183.498v5.258c0 1.451-1.19 2.629-2.66 2.629h-5.31c-1.47 0-2.66-1.178-2.66-2.629v-5.258c0-1.451 1.19-2.629 2.66-2.629h5.31c1.47 0 2.66 1.178 2.66 2.629z" transform="matrix(.94107 0 0 .9509 -1710.171 -164.48)" />
    <path d="M1863.01 183.498v5.258c0 1.451-1.19 2.629-2.66 2.629h-5.31c-1.47 0-2.66-1.178-2.66-2.629v-5.258c0-1.451 1.19-2.629 2.66-2.629h5.31c1.47 0 2.66 1.178 2.66 2.629z" transform="matrix(.94107 0 0 .9509 -1736.171 -164.48)" />
  </g>
  <g id="pos11" display="none" fill="none" stroke="var(--band-ink)" stroke-width="1">
    <path d="M1863.01 183.498v5.258c0 1.451-1.19 2.629-2.66 2.629h-5.31c-1.47 0-2.66-1.178-2.66-2.629v-5.258c0-1.451 1.19-2.629 2.66-2.629h5.31c1.47 0 2.66 1.178 2.66 2.629z" transform="matrix(.94107 0 0 .9509 -1723.17 -164.48)" />
  </g>
  <g id="pos10" display="none" fill="var(--band-ink)">
    <path d="M1863.01 183.498v5.258c0 1.451-1.19 2.629-2.66 2.629h-5.31c-1.47 0-2.66-1.178-2.66-2.629v-5.258c0-1.451 1.19-2.629 2.66-2.629h5.31c1.47 0 2.66 1.178 2.66 2.629z" transform="matrix(.94107 0 0 .9509 -1742.671 -157.98)" />
    <path d="M1863.01 183.498v5.258c0 1.451-1.19 2.629-2.66 2.629h-5.31c-1.47 0-2.66-1.178-2.66-2.629v-5.258c0-1.451 1.19-2.629 2.66-2.629h5.31c1.47 0 2.66 1.178 2.66 2.629z" transform="matrix(.94107 0 0 .9509 -1716.671 -170.98)" />
    <path d="M1863.01 183.498v5.258c0 1.451-1.19 2.629-2.66 2.629h-5.31c-1.47 0-2.66-1.178-2.66-2.629v-5.258c0-1.451 1.19-2.629 2.66-2.629h5.31c1.47 0 2.66 1.178 2.66 2.629z" transform="matrix(.94107 0 0 .9509 -1716.671 -157.98)" />
    <path d="M1863.01 183.498v5.258c0 1.451-1.19 2.629-2.66 2.629h-5.31c-1.47 0-2.66-1.178-2.66-2.629v-5.258c0-1.451 1.19-2.629 2.66-2.629h5.31c1.47 0 2.66 1.178 2.66 2.629z" transform="matrix(.94107 0 0 .9509 -1703.801 -157.98)" />
    <path d="M1863.01 183.498v5.258c0 1.451-1.19 2.629-2.66 2.629h-5.31c-1.47 0-2.66-1.178-2.66-2.629v-5.258c0-1.451 1.19-2.629 2.66-2.629h5.31c1.47 0 2.66 1.178 2.66 2.629z" transform="matrix(.94107 0 0 .9509 -1742.671 -170.98)" />
    <path d="M1863.01 183.498v5.258c0 1.451-1.19 2.629-2.66 2.629h-5.31c-1.47 0-2.66-1.178-2.66-2.629v-5.258c0-1.451 1.19-2.629 2.66-2.629h5.31c1.47 0 2.66 1.178 2.66 2.629z" transform="matrix(.94107 0 0 .9509 -1729.671 -170.98)" />
    <path d="M1863.01 183.498v5.258c0 1.451-1.19 2.629-2.66 2.629h-5.31c-1.47 0-2.66-1.178-2.66-2.629v-5.258c0-1.451 1.19-2.629 2.66-2.629h5.31c1.47 0 2.66 1.178 2.66 2.629z" transform="matrix(.94107 0 0 .9509 -1703.801 -170.98)" />
    <path d="M1863.01 183.498v5.258c0 1.451-1.19 2.629-2.66 2.629h-5.31c-1.47 0-2.66-1.178-2.66-2.629v-5.258c0-1.451 1.19-2.629 2.66-2.629h5.31c1.47 0 2.66 1.178 2.66 2.629z" transform="matrix(.94107 0 0 .9509 -1729.671 -157.98)" />
    <path d="M1863.01 183.498v5.258c0 1.451-1.19 2.629-2.66 2.629h-5.31c-1.47 0-2.66-1.178-2.66-2.629v-5.258c0-1.451 1.19-2.629 2.66-2.629h5.31c1.47 0 2.66 1.178 2.66 2.629z" transform="matrix(.94107 0 0 .9509 -1710.171 -164.48)" />
    <path d="M1863.01 183.498v5.258c0 1.451-1.19 2.629-2.66 2.629h-5.31c-1.47 0-2.66-1.178-2.66-2.629v-5.258c0-1.451 1.19-2.629 2.66-2.629h5.31c1.47 0 2.66 1.178 2.66 2.629z" transform="matrix(.94107 0 0 .9509 -1736.171 -164.48)" />
  </g>
  <g id="pos09" display="none" fill="var(--band-ink)">
    <path d="M1863.01 183.498v5.258c0 1.451-1.19 2.629-2.66 2.629h-5.31c-1.47 0-2.66-1.178-2.66-2.629v-5.258c0-1.451 1.19-2.629 2.66-2.629h5.31c1.47 0 2.66 1.178 2.66 2.629z" transform="matrix(.94107 0 0 .9509 -1742.671 -157.98)" />
    <path d="M1863.01 183.498v5.258c0 1.451-1.19 2.629-2.66 2.629h-5.31c-1.47 0-2.66-1.178-2.66-2.629v-5.258c0-1.451 1.19-2.629 2.66-2.629h5.31c1.47 0 2.66 1.178 2.66 2.629z" transform="matrix(.94107 0 0 .9509 -1716.671 -170.98)" />
    <path d="M1863.01 183.498v5.258c0 1.451-1.19 2.629-2.66 2.629h-5.31c-1.47 0-2.66-1.178-2.66-2.629v-5.258c0-1.451 1.19-2.629 2.66-2.629h5.31c1.47 0 2.66 1.178 2.66 2.629z" transform="matrix(.94107 0 0 .9509 -1716.671 -157.98)" />
    <path d="M1863.01 183.498v5.258c0 1.451-1.19 2.629-2.66 2.629h-5.31c-1.47 0-2.66-1.178-2.66-2.629v-5.258c0-1.451 1.19-2.629 2.66-2.629h5.31c1.47 0 2.66 1.178 2.66 2.629z" transform="matrix(.94107 0 0 .9509 -1703.801 -157.98)" />
    <path d="M1863.01 183.498v5.258c0 1.451-1.19 2.629-2.66 2.629h-5.31c-1.47 0-2.66-1.178-2.66-2.629v-5.258c0-1.451 1.19-2.629 2.66-2.629h5.31c1.47 0 2.66 1.178 2.66 2.629z" transform="matrix(.94107 0 0 .9509 -1742.671 -170.98)" />
    <path d="M1863.01 183.498v5.258c0 1.451-1.19 2.629-2.66 2.629h-5.31c-1.47 0-2.66-1.178-2.66-2.629v-5.258c0-1.451 1.19-2.629 2.66-2.629h5.31c1.47 0 2.66 1.178 2.66 2.629z" transform="matrix(.94107 0 0 .9509 -1729.671 -170.98)" />
    <path d="M1863.01 183.498v5.258c0 1.451-1.19 2.629-2.66 2.629h-5.31c-1.47 0-2.66-1.178-2.66-2.629v-5.258c0-1.451 1.19-2.629 2.66-2.629h5.31c1.47 0 2.66 1.178 2.66 2.629z" transform="matrix(.94107 0 0 .9509 -1703.801 -170.98)" />
    <path d="M1863.01 183.498v5.258c0 1.451-1.19 2.629-2.66 2.629h-5.31c-1.47 0-2.66-1.178-2.66-2.629v-5.258c0-1.451 1.19-2.629 2.66-2.629h5.31c1.47 0 2.66 1.178 2.66 2.629z" transform="matrix(.94107 0 0 .9509 -1729.671 -157.98)" />
    <path d="M1863.01 183.498v5.258c0 1.451-1.19 2.629-2.66 2.629h-5.31c-1.47 0-2.66-1.178-2.66-2.629v-5.258c0-1.451 1.19-2.629 2.66-2.629h5.31c1.47 0 2.66 1.178 2.66 2.629z" transform="matrix(.94107 0 0 .9509 -1723.171 -164.48)" />
  </g>
  <g id="pos08" display="none" fill="var(--band-ink)">
    <path d="M1863.01 183.498v5.258c0 1.451-1.19 2.629-2.66 2.629h-5.31c-1.47 0-2.66-1.178-2.66-2.629v-5.258c0-1.451 1.19-2.629 2.66-2.629h5.31c1.47 0 2.66 1.178 2.66 2.629z" transform="matrix(.94107 0 0 .9509 -1742.671 -157.98)" />
    <path d="M1863.01 183.498v5.258c0 1.451-1.19 2.629-2.66 2.629h-5.31c-1.47 0-2.66-1.178-2.66-2.629v-5.258c0-1.451 1.19-2.629 2.66-2.629h5.31c1.47 0 2.66 1.178 2.66 2.629z" transform="matrix(.94107 0 0 .9509 -1716.671 -170.98)" />
    <path d="M1863.01 183.498v5.258c0 1.451-1.19 2.629-2.66 2.629h-5.31c-1.47 0-2.66-1.178-2.66-2.629v-5.258c0-1.451 1.19-2.629 2.66-2.629h5.31c1.47 0 2.66 1.178 2.66 2.629z" transform="matrix(.94107 0 0 .9509 -1716.671 -157.98)" />
    <path d="M1863.01 183.498v5.258c0 1.451-1.19 2.629-2.66 2.629h-5.31c-1.47 0-2.66-1.178-2.66-2.629v-5.258c0-1.451 1.19-2.629 2.66-2.629h5.31c1.47 0 2.66 1.178 2.66 2.629z" transform="matrix(.94107 0 0 .9509 -1703.801 -157.98)" />
    <path d="M1863.01 183.498v5.258c0 1.451-1.19 2.629-2.66 2.629h-5.31c-1.47 0-2.66-1.178-2.66-2.629v-5.258c0-1.451 1.19-2.629 2.66-2.629h5.31c1.47 0 2.66 1.178 2.66 2.629z" transform="matrix(.94107 0 0 .9509 -1742.671 -170.98)" />
    <path d="M1863.01 183.498v5.258c0 1.451-1.19 2.629-2.66 2.629h-5.31c-1.47 0-2.66-1.178-2.66-2.629v-5.258c0-1.451 1.19-2.629 2.66-2.629h5.31c1.47 0 2.66 1.178 2.66 2.629z" transform="matrix(.94107 0 0 .9509 -1729.671 -170.98)" />
    <path d="M1863.01 183.498v5.258c0 1.451-1.19 2.629-2.66 2.629h-5.31c-1.47 0-2.66-1.178-2.66-2.629v-5.258c0-1.451 1.19-2.629 2.66-2.629h5.31c1.47 0 2.66 1.178 2.66 2.629z" transform="matrix(.94107 0 0 .9509 -1703.801 -170.98)" />
    <path d="M1863.01 183.498v5.258c0 1.451-1.19 2.629-2.66 2.629h-5.31c-1.47 0-2.66-1.178-2.66-2.629v-5.258c0-1.451 1.19-2.629 2.66-2.629h5.31c1.47 0 2.66 1.178 2.66 2.629z" transform="matrix(.94107 0 0 .9509 -1729.671 -157.98)" />
  </g>
  <g id="pos07" display="none" fill="var(--band-ink)">
    <path d="M1863.01 183.498v5.258c0 1.451-1.19 2.629-2.66 2.629h-5.31c-1.47 0-2.66-1.178-2.66-2.629v-5.258c0-1.451 1.19-2.629 2.66-2.629h5.31c1.47 0 2.66 1.178 2.66 2.629z" transform="matrix(.94107 0 0 .9509 -1742.671 -157.98)" />
    <path d="M1863.01 183.498v5.258c0 1.451-1.19 2.629-2.66 2.629h-5.31c-1.47 0-2.66-1.178-2.66-2.629v-5.258c0-1.451 1.19-2.629 2.66-2.629h5.31c1.47 0 2.66 1.178 2.66 2.629z" transform="matrix(.94107 0 0 .9509 -1716.671 -157.98)" />
    <path d="M1863.01 183.498v5.258c0 1.451-1.19 2.629-2.66 2.629h-5.31c-1.47 0-2.66-1.178-2.66-2.629v-5.258c0-1.451 1.19-2.629 2.66-2.629h5.31c1.47 0 2.66 1.178 2.66 2.629z" transform="matrix(.94107 0 0 .9509 -1703.801 -157.98)" />
    <path d="M1863.01 183.498v5.258c0 1.451-1.19 2.629-2.66 2.629h-5.31c-1.47 0-2.66-1.178-2.66-2.629v-5.258c0-1.451 1.19-2.629 2.66-2.629h5.31c1.47 0 2.66 1.178 2.66 2.629z" transform="matrix(.94107 0 0 .9509 -1742.671 -170.98)" />
    <path d="M1863.01 183.498v5.258c0 1.451-1.19 2.629-2.66 2.629h-5.31c-1.47 0-2.66-1.178-2.66-2.629v-5.258c0-1.451 1.19-2.629 2.66-2.629h5.31c1.47 0 2.66 1.178 2.66 2.629z" transform="matrix(.94107 0 0 .9509 -1729.671 -170.98)" />
    <path d="M1863.01 183.498v5.258c0 1.451-1.19 2.629-2.66 2.629h-5.31c-1.47 0-2.66-1.178-2.66-2.629v-5.258c0-1.451 1.19-2.629 2.66-2.629h5.31c1.47 0 2.66 1.178 2.66 2.629z" transform="matrix(.94107 0 0 .9509 -1703.801 -170.98)" />
    <path d="M1863.01 183.498v5.258c0 1.451-1.19 2.629-2.66 2.629h-5.31c-1.47 0-2.66-1.178-2.66-2.629v-5.258c0-1.451 1.19-2.629 2.66-2.629h5.31c1.47 0 2.66 1.178 2.66 2.629z" transform="matrix(.94107 0 0 .9509 -1729.671 -157.98)" />
  </g>
  <g id="pos06" display="none" fill="var(--band-ink)">
    <path d="M1863.01 183.498v5.258c0 1.451-1.19 2.629-2.66 2.629h-5.31c-1.47 0-2.66-1.178-2.66-2.629v-5.258c0-1.451 1.19-2.629 2.66-2.629h5.31c1.47 0 2.66 1.178 2.66 2.629z" transform="matrix(.94107 0 0 .9509 -1742.671 -157.98)" />
    <path d="M1863.01 183.498v5.258c0 1.451-1.19 2.629-2.66 2.629h-5.31c-1.47 0-2.66-1.178-2.66-2.629v-5.258c0-1.451 1.19-2.629 2.66-2.629h5.31c1.47 0 2.66 1.178 2.66 2.629z" transform="matrix(.94107 0 0 .9509 -1729.671 -157.98)" />
    <path d="M1863.01 183.498v5.258c0 1.451-1.19 2.629-2.66 2.629h-5.31c-1.47 0-2.66-1.178-2.66-2.629v-5.258c0-1.451 1.19-2.629 2.66-2.629h5.31c1.47 0 2.66 1.178 2.66 2.629z" transform="matrix(.94107 0 0 .9509 -1716.671 -157.98)" />
    <path d="M1863.01 183.498v5.258c0 1.451-1.19 2.629-2.66 2.629h-5.31c-1.47 0-2.66-1.178-2.66-2.629v-5.258c0-1.451 1.19-2.629 2.66-2.629h5.31c1.47 0 2.66 1.178 2.66 2.629z" transform="matrix(.94107 0 0 .9509 -1703.801 -157.98)" />
    <path d="M1863.01 183.498v5.258c0 1.451-1.19 2.629-2.66 2.629h-5.31c-1.47 0-2.66-1.178-2.66-2.629v-5.258c0-1.451 1.19-2.629 2.66-2.629h5.31c1.47 0 2.66 1.178 2.66 2.629z" transform="matrix(.94107 0 0 .9509 -1742.671 -170.98)" />
    <path d="M1863.01 183.498v5.258c0 1.451-1.19 2.629-2.66 2.629h-5.31c-1.47 0-2.66-1.178-2.66-2.629v-5.258c0-1.451 1.19-2.629 2.66-2.629h5.31c1.47 0 2.66 1.178 2.66 2.629z" transform="matrix(.94107 0 0 .9509 -1703.801 -170.98)" />
  </g>
  <g id="pos05" display="none" fill="var(--band-ink)">
    <path d="M1863.01 183.498v5.258c0 1.451-1.19 2.629-2.66 2.629h-5.31c-1.47 0-2.66-1.178-2.66-2.629v-5.258c0-1.451 1.19-2.629 2.66-2.629h5.31c1.47 0 2.66 1.178 2.66 2.629z" transform="matrix(.94107 0 0 .9509 -1742.671 -157.98)" />
    <path d="M1863.01 183.498v5.258c0 1.451-1.19 2.629-2.66 2.629h-5.31c-1.47 0-2.66-1.178-2.66-2.629v-5.258c0-1.451 1.19-2.629 2.66-2.629h5.31c1.47 0 2.66 1.178 2.66 2.629z" transform="matrix(.94107 0 0 .9509 -1703.801 -157.98)" />
    <path d="M1863.01 183.498v5.258c0 1.451-1.19 2.629-2.66 2.629h-5.31c-1.47 0-2.66-1.178-2.66-2.629v-5.258c0-1.451 1.19-2.629 2.66-2.629h5.31c1.47 0 2.66 1.178 2.66 2.629z" transform="matrix(.94107 0 0 .9509 -1742.671 -170.98)" />
    <path d="M1863.01 183.498v5.258c0 1.451-1.19 2.629-2.66 2.629h-5.31c-1.47 0-2.66-1.178-2.66-2.629v-5.258c0-1.451 1.19-2.629 2.66-2.629h5.31c1.47 0 2.66 1.178 2.66 2.629z" transform="matrix(.94107 0 0 .9509 -1703.801 -170.98)" />
    <path d="M1863.01 183.498v5.258c0 1.451-1.19 2.629-2.66 2.629h-5.31c-1.47 0-2.66-1.178-2.66-2.629v-5.258c0-1.451 1.19-2.629 2.66-2.629h5.31c1.47 0 2.66 1.178 2.66 2.629z" transform="matrix(.94107 0 0 .9509 -1723.171 -164.48)" />
  </g>
  <g id="pos04" display="none" fill="var(--band-ink)">
    <path d="M1863.01 183.498v5.258c0 1.451-1.19 2.629-2.66 2.629h-5.31c-1.47 0-2.66-1.178-2.66-2.629v-5.258c0-1.451 1.19-2.629 2.66-2.629h5.31c1.47 0 2.66 1.178 2.66 2.629z" transform="matrix(.94107 0 0 .9509 -1729.671 -157.98)" />
    <path d="M1863.01 183.498v5.258c0 1.451-1.19 2.629-2.66 2.629h-5.31c-1.47 0-2.66-1.178-2.66-2.629v-5.258c0-1.451 1.19-2.629 2.66-2.629h5.31c1.47 0 2.66 1.178 2.66 2.629z" transform="matrix(.94107 0 0 .9509 -1716.671 -157.98)" />
    <path d="M1863.01 183.498v5.258c0 1.451-1.19 2.629-2.66 2.629h-5.31c-1.47 0-2.66-1.178-2.66-2.629v-5.258c0-1.451 1.19-2.629 2.66-2.629h5.31c1.47 0 2.66 1.178 2.66 2.629z" transform="matrix(.94107 0 0 .9509 -1729.671 -170.98)" />
    <path d="M1863.01 183.498v5.258c0 1.451-1.19 2.629-2.66 2.629h-5.31c-1.47 0-2.66-1.178-2.66-2.629v-5.258c0-1.451 1.19-2.629 2.66-2.629h5.31c1.47 0 2.66 1.178 2.66 2.629z" transform="matrix(.94107 0 0 .9509 -1716.671 -170.98)" />
  </g>
  <g id="pos03" display="none" fill="var(--band-ink)">
    <path d="M1863.01 183.498v5.258c0 1.451-1.19 2.629-2.66 2.629h-5.31c-1.47 0-2.66-1.178-2.66-2.629v-5.258c0-1.451 1.19-2.629 2.66-2.629h5.31c1.47 0 2.66 1.178 2.66 2.629z" transform="matrix(.94107 0 0 .9509 -1723.171 -164.48)" />
    <path d="M1863.01 183.498v5.258c0 1.451-1.19 2.629-2.66 2.629h-5.31c-1.47 0-2.66-1.178-2.66-2.629v-5.258c0-1.451 1.19-2.629 2.66-2.629h5.31c1.47 0 2.66 1.178 2.66 2.629z" transform="matrix(.94107 0 0 .9509 -1710.171 -164.48)" />
    <path d="M1863.01 183.498v5.258c0 1.451-1.19 2.629-2.66 2.629h-5.31c-1.47 0-2.66-1.178-2.66-2.629v-5.258c0-1.451 1.19-2.629 2.66-2.629h5.31c1.47 0 2.66 1.178 2.66 2.629z" transform="matrix(.94107 0 0 .9509 -1736.171 -164.48)" />
  </g>
  <g id="pos02" display="none" fill="var(--band-ink)">
    <path d="M1863.01 183.498v5.258c0 1.451-1.19 2.629-2.66 2.629h-5.31c-1.47 0-2.66-1.178-2.66-2.629v-5.258c0-1.451 1.19-2.629 2.66-2.629h5.31c1.47 0 2.66 1.178 2.66 2.629z" transform="matrix(.94107 0 0 .9509 -1710.171 -164.48)" />
    <path d="M1863.01 183.498v5.258c0 1.451-1.19 2.629-2.66 2.629h-5.31c-1.47 0-2.66-1.178-2.66-2.629v-5.258c0-1.451 1.19-2.629 2.66-2.629h5.31c1.47 0 2.66 1.178 2.66 2.629z" transform="matrix(.94107 0 0 .9509 -1736.171 -164.48)" />
  </g>
  <g id="pos01" display="none" fill="var(--band-ink)" >  
    <path d="M1863.01 183.498v5.258c0 1.451-1.19 2.629-2.66 2.629h-5.31c-1.47 0-2.66-1.178-2.66-2.629v-5.258c0-1.451 1.19-2.629 2.66-2.629h5.31c1.47 0 2.66 1.178 2.66 2.629z" transform="matrix(.94107 0 0 .9509 -1723.17 -164.48)" />
  </g>
</svg>